<svg xmlns="http://www.w3.org/2000/svg" xmlns:xlink="http://www.w3.org/1999/xlink" width="134.796" height="123.609" viewBox="0 0 134.796 123.609"><defs><clipPath id="a"><rect width="134.796" height="123.609" fill="none" stroke="#707070" stroke-width="1"/></clipPath><clipPath id="b"><rect width="134.796" height="123.609" transform="translate(0 0)" fill="none" stroke="#707070" stroke-width="1"/></clipPath><clipPath id="c"><rect width="131.466" height="80.816" transform="translate(1.665 1.665)" fill="none" stroke="#707070" stroke-width="1"/></clipPath></defs><g clip-path="url(#a)"><g clip-path="url(#b)"><g opacity="0.25"><g clip-path="url(#c)"><g opacity="0.5"><g clip-path="url(#c)"><path d="M133.131,56.262A26.206,26.206,0,0,1,116.387,81V48.186c0-3.177-8.209-5.749-18.338-5.749s-18.333,2.572-18.333,5.749v34.3H60.355v-34.3c0-3.177-8.209-5.749-18.333-5.749s-18.338,2.572-18.338,5.749v34.1c-12.39-1.568-22.02-12.643-22.02-26.028,0-13.164,9.313-24.1,21.394-25.947-.067-.805-.105-1.619-.105-2.432,0-14.457,11.232-26.219,25.038-26.219a24.511,24.511,0,0,1,19.06,9.207A28.057,28.057,0,0,1,84.307,4.956c14.469,0,26.513,11.1,28.766,25.6,11.43,2.42,20.058,13.029,20.058,25.706" fill="#61b0bc"/><path d="M80.216,82.981H59.855v-34.8a2.476,2.476,0,0,0-1.239-1.837A13.165,13.165,0,0,0,54.835,44.6a44.654,44.654,0,0,0-12.813-1.66A44.678,44.678,0,0,0,29.2,44.6a13.166,13.166,0,0,0-3.781,1.752,2.476,2.476,0,0,0-1.239,1.837V82.857l-.563-.071A25.182,25.182,0,0,1,7.647,74.032,27.693,27.693,0,0,1,2.838,46.743a26.948,26.948,0,0,1,4.608-8.017A25.285,25.285,0,0,1,22.525,29.9c-.048-.69-.072-1.365-.072-2.012,0-14.733,11.456-26.719,25.538-26.719A24.992,24.992,0,0,1,67.13,10.182,28.547,28.547,0,0,1,84.307,4.456a28.3,28.3,0,0,1,10.466,2,29.342,29.342,0,0,1,8.832,5.495,31.438,31.438,0,0,1,9.907,18.193,25.464,25.464,0,0,1,14.268,9.112,27,27,0,0,1,4.3,7.819,27.692,27.692,0,0,1,1.555,9.19,27.346,27.346,0,0,1-4.806,15.588,26.366,26.366,0,0,1-5.4,5.77,25.117,25.117,0,0,1-6.864,3.851l-.673.248V48.186a2.476,2.476,0,0,0-1.239-1.837,13.166,13.166,0,0,0-3.781-1.752,44.678,44.678,0,0,0-12.818-1.66A44.654,44.654,0,0,0,85.236,44.6a13.165,13.165,0,0,0-3.781,1.752,2.476,2.476,0,0,0-1.239,1.837Zm-19.361-1H79.216v-33.8a3.384,3.384,0,0,1,1.643-2.64,13.936,13.936,0,0,1,4.077-1.9,45.663,45.663,0,0,1,13.113-1.706,45.686,45.686,0,0,1,13.117,1.706,13.937,13.937,0,0,1,4.078,1.9,3.384,3.384,0,0,1,1.643,2.64V80.273a24.174,24.174,0,0,0,5.918-3.439,25.367,25.367,0,0,0,5.2-5.552,26.35,26.35,0,0,0,4.63-15.021,26.694,26.694,0,0,0-1.5-8.859A26,26,0,0,0,127,39.873a24.434,24.434,0,0,0-14.026-8.827l-.338-.071-.053-.341a30.446,30.446,0,0,0-9.642-17.942A28.345,28.345,0,0,0,94.4,7.382a27.56,27.56,0,0,0-19.1-.421,27.758,27.758,0,0,0-7.943,4.305l-.386.3-.308-.379A24.019,24.019,0,0,0,47.991,2.164c-13.53,0-24.538,11.537-24.538,25.719,0,.763.035,1.567.1,2.391l.039.465-.461.071A24.254,24.254,0,0,0,8.215,39.366a25.951,25.951,0,0,0-4.437,7.72,26.642,26.642,0,0,0-1.614,9.176A26.372,26.372,0,0,0,8.408,73.383a24.221,24.221,0,0,0,14.776,8.333V48.186a3.384,3.384,0,0,1,1.643-2.64,13.937,13.937,0,0,1,4.078-1.9,45.686,45.686,0,0,1,13.117-1.706,45.663,45.663,0,0,1,13.113,1.706,13.936,13.936,0,0,1,4.077,1.9,3.384,3.384,0,0,1,1.643,2.64Z" fill="#707070"/></g></g></g></g><path d="M23.621,82.786A25.182,25.182,0,0,1,7.647,74.032,27.693,27.693,0,0,1,2.838,46.743a26.948,26.948,0,0,1,4.608-8.017A25.285,25.285,0,0,1,22.525,29.9c-.048-.69-.072-1.365-.072-2.012,0-14.733,11.456-26.719,25.538-26.719A24.992,24.992,0,0,1,67.13,10.182,28.546,28.546,0,0,1,84.307,4.456a28.3,28.3,0,0,1,10.466,2,29.342,29.342,0,0,1,8.832,5.495,31.438,31.438,0,0,1,9.907,18.193,25.464,25.464,0,0,1,14.268,9.112,27,27,0,0,1,4.3,7.819,27.692,27.692,0,0,1,1.555,9.19,27.346,27.346,0,0,1-4.806,15.588,26.365,26.365,0,0,1-5.4,5.77,25.118,25.118,0,0,1-6.864,3.851l-.346-.938a24.121,24.121,0,0,0,6.59-3.7,25.365,25.365,0,0,0,5.2-5.552,26.35,26.35,0,0,0,4.63-15.021,26.694,26.694,0,0,0-1.5-8.859A26,26,0,0,0,127,39.873a24.434,24.434,0,0,0-14.026-8.827l-.338-.071-.053-.341a30.446,30.446,0,0,0-9.642-17.942A28.346,28.346,0,0,0,94.4,7.382a27.56,27.56,0,0,0-19.1-.421,27.757,27.757,0,0,0-7.943,4.305l-.386.3-.308-.379A24.019,24.019,0,0,0,47.991,2.164c-13.53,0-24.538,11.537-24.538,25.719,0,.763.035,1.567.1,2.391l.039.465-.461.071A24.254,24.254,0,0,0,8.215,39.366a25.951,25.951,0,0,0-4.437,7.72,26.642,26.642,0,0,0-1.614,9.176A26.372,26.372,0,0,0,8.408,73.383a24.184,24.184,0,0,0,15.339,8.411Z" fill="#2d3960"/><path d="M102.294,29.5c-2.979-8.044-10.377-13.449-18.41-13.449a18.84,18.84,0,0,0-4.472.533l-.238-.971a19.841,19.841,0,0,1,4.71-.561c8.449,0,16.224,5.667,19.348,14.1Z" fill="#2d3960"/><path d="M19.361.5H0v-1H19.361Z" transform="translate(60.355 82.481)" fill="#2d3960"/><path d="M42.022,41.937a45.657,45.657,0,0,1,13.113,1.706,13.934,13.934,0,0,1,4.077,1.9,3.385,3.385,0,0,1,1.643,2.641,3.386,3.386,0,0,1-1.643,2.641,13.935,13.935,0,0,1-4.077,1.9,45.615,45.615,0,0,1-13.113,1.708A45.64,45.64,0,0,1,28.9,52.733a13.937,13.937,0,0,1-4.078-1.9,3.386,3.386,0,0,1-1.643-2.641,3.385,3.385,0,0,1,1.643-2.641,13.935,13.935,0,0,1,4.078-1.9A45.682,45.682,0,0,1,42.022,41.937Zm0,11.5a44.606,44.606,0,0,0,12.813-1.662c3.143-.986,5.02-2.329,5.02-3.592a2.477,2.477,0,0,0-1.239-1.838A13.163,13.163,0,0,0,54.835,44.6a44.649,44.649,0,0,0-12.813-1.66A44.674,44.674,0,0,0,29.2,44.6a13.164,13.164,0,0,0-3.781,1.752,2.477,2.477,0,0,0-1.239,1.838c0,1.263,1.877,2.605,5.02,3.592A44.631,44.631,0,0,0,42.022,53.441Z" fill="#2d3960"/><path d="M42.022,66.77A45.64,45.64,0,0,1,28.9,65.062a13.937,13.937,0,0,1-4.078-1.9,3.386,3.386,0,0,1-1.643-2.641h1c0,1.263,1.877,2.605,5.02,3.592A44.632,44.632,0,0,0,42.022,65.77a44.606,44.606,0,0,0,12.813-1.662c3.143-.986,5.02-2.329,5.02-3.592h1a3.386,3.386,0,0,1-1.643,2.641,13.936,13.936,0,0,1-4.077,1.9A45.615,45.615,0,0,1,42.022,66.77Z" fill="#2d3960"/><path d="M42.022,79.1A45.64,45.64,0,0,1,28.9,77.388a13.937,13.937,0,0,1-4.078-1.9,3.386,3.386,0,0,1-1.643-2.641h1c0,1.263,1.877,2.605,5.02,3.592A44.631,44.631,0,0,0,42.022,78.1a44.606,44.606,0,0,0,12.813-1.662c3.143-.986,5.02-2.329,5.02-3.592h1a3.386,3.386,0,0,1-1.643,2.641,13.935,13.935,0,0,1-4.077,1.9A45.615,45.615,0,0,1,42.022,79.1Z" fill="#2d3960"/><path d="M42.022,91.425A45.64,45.64,0,0,1,28.9,89.717a13.937,13.937,0,0,1-4.078-1.9,3.386,3.386,0,0,1-1.643-2.641h1c0,1.263,1.877,2.605,5.02,3.592a44.631,44.631,0,0,0,12.818,1.662,44.606,44.606,0,0,0,12.813-1.662c3.143-.986,5.02-2.329,5.02-3.592h1a3.386,3.386,0,0,1-1.643,2.641,13.935,13.935,0,0,1-4.077,1.9A45.615,45.615,0,0,1,42.022,91.425Z" fill="#2d3960"/><path d="M42.022,103.755h-.161a45.323,45.323,0,0,1-13.01-1.725,13.8,13.8,0,0,1-4.04-1.9,3.376,3.376,0,0,1-1.627-2.63h1a2.467,2.467,0,0,0,1.225,1.828,12.842,12.842,0,0,0,3.743,1.748,44.312,44.312,0,0,0,12.71,1.678h.16a44.606,44.606,0,0,0,12.813-1.662c3.143-.986,5.02-2.329,5.02-3.592h1a3.386,3.386,0,0,1-1.643,2.641,13.936,13.936,0,0,1-4.077,1.9A45.615,45.615,0,0,1,42.022,103.755Z" fill="#2d3960"/><path d="M24.184,97.5h-1V48.187h1Z" fill="#2d3960"/><path d="M60.855,97.5h-1V48.187h1Z" fill="#2d3960"/><path d="M2.959.5H0v-1H2.959Z" transform="translate(40.542 60.199)" fill="#2d3960"/><path d="M2.959.5H0v-1H2.959Z" transform="translate(40.542 72.63)" fill="#2d3960"/><path d="M2.959.5H0v-1H2.959Z" transform="translate(40.542 85.066)" fill="#2d3960"/><path d="M2.959.5H0v-1H2.959Z" transform="translate(40.542 97.501)" fill="#2d3960"/><path d="M98.049,41.937a45.682,45.682,0,0,1,13.117,1.706,13.935,13.935,0,0,1,4.078,1.9,3.385,3.385,0,0,1,1.643,2.641,3.386,3.386,0,0,1-1.643,2.641,13.937,13.937,0,0,1-4.078,1.9,45.64,45.64,0,0,1-13.117,1.708,45.615,45.615,0,0,1-13.113-1.708,13.935,13.935,0,0,1-4.077-1.9,3.386,3.386,0,0,1-1.643-2.641,3.385,3.385,0,0,1,1.643-2.641,13.934,13.934,0,0,1,4.077-1.9A45.658,45.658,0,0,1,98.049,41.937Zm0,11.5a44.63,44.63,0,0,0,12.818-1.662c3.144-.986,5.02-2.329,5.02-3.592a2.477,2.477,0,0,0-1.239-1.838,13.164,13.164,0,0,0-3.781-1.752,44.673,44.673,0,0,0-12.818-1.66A44.649,44.649,0,0,0,85.236,44.6a13.163,13.163,0,0,0-3.781,1.752,2.477,2.477,0,0,0-1.239,1.838c0,1.263,1.877,2.605,5.02,3.592A44.606,44.606,0,0,0,98.049,53.441Z" fill="#2d3960"/><path d="M98.049,66.77a45.615,45.615,0,0,1-13.113-1.708,13.936,13.936,0,0,1-4.077-1.9,3.386,3.386,0,0,1-1.643-2.641h1c0,1.263,1.877,2.605,5.02,3.592A44.606,44.606,0,0,0,98.049,65.77a44.631,44.631,0,0,0,12.818-1.662c3.144-.986,5.02-2.329,5.02-3.592h1a3.386,3.386,0,0,1-1.643,2.641,13.936,13.936,0,0,1-4.078,1.9A45.64,45.64,0,0,1,98.049,66.77Z" fill="#2d3960"/><path d="M98.049,79.1a45.615,45.615,0,0,1-13.113-1.708,13.935,13.935,0,0,1-4.077-1.9,3.386,3.386,0,0,1-1.643-2.641h1c0,1.263,1.877,2.605,5.02,3.592A44.606,44.606,0,0,0,98.049,78.1a44.631,44.631,0,0,0,12.818-1.662c3.144-.986,5.02-2.329,5.02-3.592h1a3.386,3.386,0,0,1-1.643,2.641,13.936,13.936,0,0,1-4.078,1.9A45.639,45.639,0,0,1,98.049,79.1Z" fill="#2d3960"/><path d="M98.049,91.425a45.615,45.615,0,0,1-13.113-1.708,13.935,13.935,0,0,1-4.077-1.9,3.386,3.386,0,0,1-1.643-2.641h1c0,1.263,1.877,2.605,5.02,3.592a44.606,44.606,0,0,0,12.813,1.662,44.631,44.631,0,0,0,12.818-1.662c3.144-.986,5.02-2.329,5.02-3.592h1a3.386,3.386,0,0,1-1.643,2.641,13.937,13.937,0,0,1-4.078,1.9A45.639,45.639,0,0,1,98.049,91.425Z" fill="#2d3960"/><path d="M98.211,103.755h-.162a45.615,45.615,0,0,1-13.113-1.708,13.936,13.936,0,0,1-4.077-1.9A3.386,3.386,0,0,1,79.216,97.5h1c0,1.263,1.877,2.605,5.02,3.592a44.606,44.606,0,0,0,12.813,1.662h.161a44.309,44.309,0,0,0,12.709-1.678,12.841,12.841,0,0,0,3.743-1.748,2.467,2.467,0,0,0,1.225-1.828h1a3.376,3.376,0,0,1-1.627,2.63,13.8,13.8,0,0,1-4.039,1.9A45.32,45.32,0,0,1,98.211,103.755Z" fill="#2d3960"/><path d="M80.216,97.5h-1V48.187h1Z" fill="#2d3960"/><path d="M116.887,97.5h-1V48.187h1Z" fill="#2d3960"/><path d="M2.963.5H0v-1H2.963Z" transform="translate(96.57 60.199)" fill="#2d3960"/><path d="M2.963.5H0v-1H2.963Z" transform="translate(96.57 72.63)" fill="#2d3960"/><path d="M2.963.5H0v-1H2.963Z" transform="translate(96.57 85.066)" fill="#2d3960"/><path d="M2.963.5H0v-1H2.963Z" transform="translate(96.57 97.501)" fill="#2d3960"/><path d="M88.074,122.444H52a10.654,10.654,0,0,1-10.645-10.669v-7.622h1v7.622A9.654,9.654,0,0,0,52,121.444H88.074a9.654,9.654,0,0,0,9.645-9.669v-7.622h1v7.622a10.654,10.654,0,0,1-10.645,10.669Z" fill="#2d3960"/></g></g></svg>