<svg xmlns="http://www.w3.org/2000/svg" xmlns:xlink="http://www.w3.org/1999/xlink" width="103.432" height="143.141" viewBox="0 0 103.432 143.141"><defs><clipPath id="a"><rect width="103.432" height="143.141" fill="none" stroke="#707070" stroke-width="1"/></clipPath><clipPath id="c"><rect width="18.277" height="18.313" transform="translate(47.466 23.441)" fill="none" stroke="#707070" stroke-width="1"/></clipPath><clipPath id="d"><rect width="9.269" height="9.195" transform="translate(70.542 70.095)" fill="none" stroke="#707070" stroke-width="1"/></clipPath><clipPath id="e"><rect width="9.269" height="9.195" transform="translate(52.51 78.261)" fill="none" stroke="#707070" stroke-width="1"/></clipPath><clipPath id="f"><rect width="9.269" height="9.195" transform="translate(33.635 70.095)" fill="none" stroke="#707070" stroke-width="1"/></clipPath></defs><g clip-path="url(#a)"><g clip-path="url(#a)"><g opacity="0.5"><g clip-path="url(#c)"><path d="M65.743,23.441V41.754H47.466V28.01l4.559-4.569Z" fill="#61b0bc"/><path d="M51.818,22.941H66.243V42.254H46.966V27.8l.146-.146,3.03-3.037Zm13.425,1H52.232L50.85,25.326l-2.884,2.891V41.254H65.243Z" fill="#707070"/></g></g><g opacity="0.5"><g clip-path="url(#d)"><path d="M75.179,70.1a4.6,4.6,0,1,1-4.636,4.6,4.615,4.615,0,0,1,4.636-4.6" fill="#61b0bc"/><path d="M75.179,79.79a5.1,5.1,0,1,1,5.132-5.1A5.122,5.122,0,0,1,75.179,79.79Zm0-9.2a4.1,4.1,0,1,0,4.132,4.1A4.122,4.122,0,0,0,75.179,70.6Z" fill="#707070"/></g></g><g opacity="0.5"><g clip-path="url(#e)"><path d="M57.146,78.261a4.6,4.6,0,1,1-4.636,4.6,4.614,4.614,0,0,1,4.636-4.6" fill="#61b0bc"/><path d="M57.146,87.956a5.1,5.1,0,1,1,5.132-5.1A5.122,5.122,0,0,1,57.146,87.956Zm0-9.2a4.1,4.1,0,1,0,4.132,4.1A4.122,4.122,0,0,0,57.146,78.761Z" fill="#707070"/></g></g><g opacity="0.5"><g clip-path="url(#f)"><path d="M38.267,70.1a4.6,4.6,0,1,1-4.632,4.6,4.615,4.615,0,0,1,4.632-4.6" fill="#61b0bc"/><path d="M38.267,79.79a5.1,5.1,0,1,1,5.136-5.1A5.12,5.12,0,0,1,38.267,79.79Zm0-9.2a4.1,4.1,0,1,0,4.136,4.1A4.12,4.12,0,0,0,38.267,70.6Z" fill="#707070"/></g></g></g><path d="M8.812.5H0v-1H8.812Z" transform="translate(24.081 45.131)" fill="#2d3960"/><path d="M8.812.5H0v-1H8.812Z" transform="translate(80.316 45.131)" fill="#2d3960"/><path d="M75.7,51.227h-1V14.464H38.514V51.227h-1V13.964a.5.5,0,0,1,.5-.5H75.2a.5.5,0,0,1,.5.5Z" fill="#2d3960"/><g clip-path="url(#a)"><path d="M65.743,42.254H47.466a.5.5,0,0,1-.5-.5V28.01a.5.5,0,0,1,.146-.353l4.559-4.569a.5.5,0,0,1,.354-.147H65.743a.5.5,0,0,1,.5.5V41.754A.5.5,0,0,1,65.743,42.254Zm-17.777-1H65.243V23.941H52.232l-4.266,4.276Z" fill="#2d3960"/><path d="M.5,8.832h-1V0h1Z" transform="translate(56.605 0)" fill="#2d3960"/><path d="M.5,8.832h-1V0h1Z" transform="translate(69.108 0)" fill="#2d3960"/><path d="M.5,8.832h-1V0h1Z" transform="translate(44.097 0)" fill="#2d3960"/><path d="M8.812.5H0v-1H8.812Z" transform="translate(24.081 32.595)" fill="#2d3960"/><path d="M8.812.5H0v-1H8.812Z" transform="translate(24.081 20.064)" fill="#2d3960"/><path d="M8.812.5H0v-1H8.812Z" transform="translate(80.316 32.599)" fill="#2d3960"/><path d="M8.812.5H0v-1H8.812Z" transform="translate(80.316 20.064)" fill="#2d3960"/><path d="M47.094,141.976c-1.721,0-3.386-.937-4.95-2.786a24.059,24.059,0,0,1-3.461-5.931,55.965,55.965,0,0,1-2.728-8.163c-1.249.007-5.239,0-9.4-.35a47.967,47.967,0,0,1-7.331-1.086c-2.52-.625-4.071-1.429-4.741-2.457a7.683,7.683,0,0,1-1.428-4.337,21.712,21.712,0,0,1,1.08-5.805c.535-1.9-.461-2.328-1.722-2.871-.848-.365-1.725-.743-1.99-1.646-.231-.787.084-1.781.992-3.129.506-.75.2-1.22-.545-2.211-1-1.33-2.363-3.151-.353-6.512a.535.535,0,0,0,.089-.48c-.243-.719-2.093-1.458-3.726-2.11A24.584,24.584,0,0,1,3.23,90.418a3.666,3.666,0,0,1-2.063-2.646.5.5,0,0,1,.012-.163c.516-2.139,2-4.338,3.725-6.885,2.757-4.077,5.882-8.7,6.06-14.6A80.152,80.152,0,0,1,11.881,55.8a.5.5,0,0,1,.494-.421h88.691a.5.5,0,0,1,.495.428,70.5,70.5,0,0,1,.705,9.755c.044,7.33-1.221,13.5-3.868,18.861a45.506,45.506,0,0,1-7.7,10.639c-2.251,2.5-4.195,4.663-4.963,7.088a14.008,14.008,0,0,0-.107,8.735c.47,1.866.876,3.477-.041,5.487l-.91-.415c.771-1.69.422-3.075-.019-4.827a15.049,15.049,0,0,1,.123-9.281c.834-2.631,2.845-4.866,5.173-7.454A44.678,44.678,0,0,0,97.5,83.978c2.576-5.219,3.808-11.242,3.765-18.413a70,70,0,0,0-.634-9.188H12.8a80.135,80.135,0,0,0-.84,9.776A20.675,20.675,0,0,1,9.8,74.537a52.66,52.66,0,0,1-4.067,6.747c-1.644,2.431-3.066,4.535-3.56,6.474.22,1.475,2.8,2.5,5.075,3.415,2.1.839,3.911,1.563,4.3,2.719a1.524,1.524,0,0,1-.178,1.314c-1.665,2.785-.669,4.114.3,5.4.7.937,1.5,2,.574,3.37-.709,1.052-1,1.822-.862,2.289s.732.71,1.426,1.009a4.905,4.905,0,0,1,1.911,1.207,2.947,2.947,0,0,1,.378,2.853c-1.365,4.861-1.5,6.675.223,9.326,1.29,1.977,7.645,2.786,11.318,3.092,4.957.413,9.659.344,9.706.343a.5.5,0,0,1,.5.389,54.677,54.677,0,0,0,2.77,8.392c1.609,3.715,4.22,8.135,7.525,8.1l.01,1Z" fill="#2d3960"/><path d="M75.679,70.128h-1V60.01h1Z" fill="#2d3960"/><path d="M75.179,79.79a5.1,5.1,0,1,1,5.132-5.1A5.123,5.123,0,0,1,75.179,79.79Zm0-9.2a4.1,4.1,0,1,0,4.132,4.1A4.122,4.122,0,0,0,75.179,70.6Z" fill="#2d3960"/><path d="M38.767,70.128h-1V60.01h1Z" fill="#2d3960"/><path d="M38.267,79.79a5.1,5.1,0,1,1,5.136-5.1A5.121,5.121,0,0,1,38.267,79.79Zm0-9.2a4.1,4.1,0,1,0,4.136,4.1A4.12,4.12,0,0,0,38.267,70.6Z" fill="#2d3960"/><path d="M57.646,78.294h-1V60.01h1Z" fill="#2d3960"/><path d="M57.147,77.761a5.1,5.1,0,1,1-5.137,5.1A5.121,5.121,0,0,1,57.147,77.761Zm0,9.2a4.1,4.1,0,1,0-4.137-4.1A4.12,4.12,0,0,0,57.147,86.957Z" fill="#2d3960"/></g></g></svg>