<svg xmlns="http://www.w3.org/2000/svg" xmlns:xlink="http://www.w3.org/1999/xlink" width="119.58" height="128.588" viewBox="0 0 119.58 128.588"><defs><clipPath id="a"><rect width="119.58" height="128.588" fill="none" stroke="#707070" stroke-width="1"/></clipPath><clipPath id="c"><rect width="26.068" height="23.574" transform="translate(1.665 103.35)" fill="none" stroke="#707070" stroke-width="1"/></clipPath><clipPath id="d"><rect width="22.764" height="23.449" transform="translate(95.151 103.414)" fill="none" stroke="#707070" stroke-width="1"/></clipPath><clipPath id="e"><rect width="41.853" height="23.735" transform="translate(38.864 103.189)" fill="none" stroke="#707070" stroke-width="1"/></clipPath><clipPath id="f"><rect width="25.971" height="14.254" transform="translate(46.804 63.299)" fill="none" stroke="#707070" stroke-width="1"/></clipPath><clipPath id="g"><rect width="8.415" height="8.466" transform="translate(99.201 5.132)" fill="none" stroke="#707070" stroke-width="1"/></clipPath><clipPath id="h"><rect width="8.411" height="8.47" transform="translate(77.393 8.596)" fill="none" stroke="#707070" stroke-width="1"/></clipPath><clipPath id="i"><rect width="8.415" height="8.469" transform="translate(55.581 1.665)" fill="none" stroke="#707070" stroke-width="1"/></clipPath><clipPath id="j"><rect width="8.411" height="8.47" transform="translate(33.772 8.596)" fill="none" stroke="#707070" stroke-width="1"/></clipPath><clipPath id="k"><rect width="8.415" height="8.466" transform="translate(11.96 5.132)" fill="none" stroke="#707070" stroke-width="1"/></clipPath></defs><g clip-path="url(#a)"><g clip-path="url(#a)"><g opacity="0.5"><g clip-path="url(#c)"><path d="M14.7,103.35l13.032,23.574H1.665Z" fill="#61b0bc"/><path d="M14.7,102.316l13.88,25.107H.817Zm12.184,24.107L14.7,104.383,2.512,126.424Z" fill="#707070"/></g></g><g opacity="0.5"><g clip-path="url(#d)"><path d="M106.535,103.414a11.73,11.73,0,1,1-11.384,11.724,11.558,11.558,0,0,1,11.384-11.724Z" fill="#61b0bc"/><path d="M106.531,102.914h0a11.648,11.648,0,0,1,8.406,3.587,12.322,12.322,0,0,1,3.474,8.637,12.072,12.072,0,0,1-11.884,12.225,11.635,11.635,0,0,1-8.406-3.587,12.476,12.476,0,0,1,0-17.277A11.636,11.636,0,0,1,106.531,102.914Zm0,23.449a11.071,11.071,0,0,0,10.884-11.225,11.327,11.327,0,0,0-3.192-7.941,10.656,10.656,0,0,0-7.688-3.283l0-.5v.5a10.644,10.644,0,0,0-7.688,3.282,11.331,11.331,0,0,0-3.192,7.942A11.069,11.069,0,0,0,106.531,126.363Z" fill="#707070"/></g></g><g opacity="0.5"><g clip-path="url(#e)"><path d="M59.788,103.189H80.716v23.735H38.864V103.189Z" fill="#61b0bc"/><path d="M38.364,102.689H81.216v24.735H38.364Zm41.852,1H39.364v22.735H80.216Z" fill="#707070"/></g></g><g opacity="0.5"><g clip-path="url(#f)"><path d="M72.776,63.3V77.553l-12.988-.032L46.8,77.488V63.3Z" fill="#61b0bc"/><path d="M46.3,62.8H73.276V78.054L46.3,77.987Zm25.971,1H47.3v13.19l24.971.063Z" fill="#707070"/></g></g><g opacity="0.5"><g clip-path="url(#g)"><path d="M103.421,5.132A4.233,4.233,0,1,1,99.2,9.357a4.218,4.218,0,0,1,4.219-4.225" fill="#61b0bc"/><path d="M103.416,14.1H103.4a4.661,4.661,0,0,1-3.326-1.394,4.738,4.738,0,0,1,3.333-8.072h.016a4.733,4.733,0,0,1-.007,9.466Zm-.009-8.466A3.738,3.738,0,0,0,100.784,12a3.669,3.669,0,0,0,2.618,1.1h.014a3.733,3.733,0,0,0,0-7.466Z" fill="#707070"/></g></g><g opacity="0.5"><g clip-path="url(#h)"><path d="M81.608,8.6a4.235,4.235,0,1,1-4.215,4.225A4.219,4.219,0,0,1,81.608,8.6" fill="#61b0bc"/><path d="M81.6,17.566h-.008A4.735,4.735,0,0,1,81.6,8.1h.008a4.735,4.735,0,0,1-.013,9.47ZM81.6,9.1a3.735,3.735,0,0,0-.012,7.47H81.6a3.735,3.735,0,0,0,.011-7.47Z" fill="#707070"/></g></g><g opacity="0.5"><g clip-path="url(#i)"><path d="M59.8,1.664A4.235,4.235,0,1,1,55.581,5.89,4.221,4.221,0,0,1,59.8,1.664" fill="#61b0bc"/><path d="M59.789,10.634h-.01a4.735,4.735,0,0,1,.014-9.47H59.8a4.735,4.735,0,0,1-.012,9.47Zm0-8.47a3.735,3.735,0,0,0-.011,7.47h.008a3.735,3.735,0,0,0,.01-7.47Z" fill="#707070"/></g></g><g opacity="0.5"><g clip-path="url(#j)"><path d="M42.183,12.821A4.206,4.206,0,1,1,37.968,8.6a4.217,4.217,0,0,1,4.215,4.225" fill="#61b0bc"/><path d="M37.981,17.566a4.735,4.735,0,0,1-.014-9.47h.009A4.743,4.743,0,0,1,41.3,16.182a4.658,4.658,0,0,1-3.315,1.384ZM37.975,9.1h-.006a3.735,3.735,0,0,0,.012,7.47h.007a3.665,3.665,0,0,0,2.608-1.09,3.743,3.743,0,0,0-2.62-6.38Z" fill="#707070"/></g></g><g opacity="0.5"><g clip-path="url(#k)"><path d="M20.375,9.357A4.208,4.208,0,1,1,16.16,5.132a4.219,4.219,0,0,1,4.215,4.225" fill="#61b0bc"/><path d="M16.165,14.1a4.733,4.733,0,0,1-.006-9.466h.016a4.733,4.733,0,0,1,.006,9.466Zm.009-8.466h-.013a3.733,3.733,0,0,0,0,7.466h.013a3.733,3.733,0,0,0,0-7.466Z" fill="#707070"/></g></g></g><path d="M59.288,103.193V77.521h1v25.668Z" fill="#2d3960"/><path d="M107.035,103.414h-1V90.9H15.2V103.35h-1V90.4a.5.5,0,0,1,.5-.5h91.83a.5.5,0,0,1,.5.5Z" fill="#2d3960"/><g clip-path="url(#a)"><path d="M80.716,127.423H38.863a.5.5,0,0,1-.5-.5V103.188a.5.5,0,0,1,.5-.5H80.716a.5.5,0,0,1,.5.5v23.735A.5.5,0,0,1,80.716,127.423Zm-41.353-1H80.216V103.688H39.363Z" fill="#2d3960"/><path d="M14.7,102.85h0a.5.5,0,0,1,.438.258L28.17,126.682a.5.5,0,0,1-.438.742H1.665a.5.5,0,0,1-.438-.742l13.036-23.574A.5.5,0,0,1,14.7,102.85Zm12.184,23.574L14.7,104.383,2.512,126.424Z" fill="#2d3960"/><path d="M106.531,102.914h0a11.648,11.648,0,0,1,8.406,3.587,12.322,12.322,0,0,1,3.474,8.637,11.887,11.887,0,1,1-23.765,0,12.325,12.325,0,0,1,3.475-8.639A11.638,11.638,0,0,1,106.531,102.914Zm0,23.448a11.07,11.07,0,0,0,10.884-11.224,11.327,11.327,0,0,0-3.192-7.941,10.656,10.656,0,0,0-7.688-3.283l0-.5v.5a10.646,10.646,0,0,0-7.689,3.282,11.33,11.33,0,0,0-3.192,7.942A11.069,11.069,0,0,0,106.531,126.362Z" fill="#2d3960"/><path d="M92.363,61.111l-.548-.836a12.812,12.812,0,0,0,4.013-4.231,12.953,12.953,0,0,0,1.737-5.774v-.006c.016-.233.02-.469.024-.719a12.679,12.679,0,0,0-12.521-12.8,12.311,12.311,0,0,0-7.835,2.769l-.628-.778a13.4,13.4,0,0,1,8.465-2.991A13.68,13.68,0,0,1,98.589,49.55v.007c0,.252-.008.513-.026.772a13.957,13.957,0,0,1-1.872,6.219A13.817,13.817,0,0,1,92.363,61.111Z" fill="#2d3960"/><path d="M23.681,49.864c0-.154-.008-.313-.008-.472a14.169,14.169,0,0,1,3.8-9.721,12.461,12.461,0,0,1,9.161-4.03,12.719,12.719,0,0,1,10.84,6.307c.23.382.425.739.6,1.093a14.319,14.319,0,0,1,1.441,5.5l-1,.06a13.329,13.329,0,0,0-1.342-5.121c-.159-.329-.339-.66-.552-1.013a11.726,11.726,0,0,0-9.986-5.824,11.471,11.471,0,0,0-8.43,3.715,13.171,13.171,0,0,0-3.528,9.038c0,.145,0,.291.008.445Z" fill="#2d3960"/><path d="M76.832,50.01l-.937-.35a14.38,14.38,0,0,0,.5-8.334,14.378,14.378,0,0,0-28.271,1.98l-1-.1a15.366,15.366,0,1,1,29.706,6.8Z" fill="#2d3960"/><path d="M95.256,78.089H87.3l-55.022-.137-7.993-.016a13.855,13.855,0,0,1-9.938-4.211,14.458,14.458,0,0,1-.011-20.145,13.888,13.888,0,0,1,9.836-4.229h.178a13.775,13.775,0,0,1,5.572,1.178,14.012,14.012,0,0,1,4.511,3.182l-.725.689a13.017,13.017,0,0,0-4.191-2.956,12.779,12.779,0,0,0-5.169-1.093h-.169a12.894,12.894,0,0,0-9.128,3.928,13.458,13.458,0,0,0,.01,18.747,12.862,12.862,0,0,0,9.225,3.911l7.993.016,55.021.137h7.923a12.86,12.86,0,0,0,9.242-3.868,13.324,13.324,0,0,0,3.853-9.391,13.464,13.464,0,0,0-2.952-8.453,13.063,13.063,0,0,0-7.41-4.59l.209-.978a14.066,14.066,0,0,1,7.98,4.941,14.3,14.3,0,0,1,2.336,4.177,14.471,14.471,0,0,1,.837,4.905,14.318,14.318,0,0,1-4.142,10.091A13.863,13.863,0,0,1,95.256,78.089Z" fill="#2d3960"/><path d="M59.793,1.164H59.8a4.735,4.735,0,0,1-.012,9.47h-.01a4.735,4.735,0,0,1,.014-9.47Zm0,8.47a3.735,3.735,0,0,0,.01-7.47h-.006a3.735,3.735,0,0,0-.011,7.47Z" fill="#2d3960"/><path d="M.5,11.4h-1V0h1Z" transform="translate(59.788 13.812)" fill="#2d3960"/><path d="M81.6,8.1h.008a4.735,4.735,0,0,1-.013,9.47h-.008A4.735,4.735,0,0,1,81.6,8.1Zm-.005,8.47a3.735,3.735,0,0,0,.011-7.47H81.6a3.735,3.735,0,0,0-.012,7.47Z" fill="#2d3960"/><path d="M103.406,4.632h.016a4.733,4.733,0,0,1-.007,9.466H103.4a4.661,4.661,0,0,1-3.326-1.394,4.738,4.738,0,0,1,3.333-8.072Zm.009,8.466a3.733,3.733,0,0,0,0-7.466h-.014A3.738,3.738,0,0,0,100.784,12a3.669,3.669,0,0,0,2.618,1.1Z" fill="#2d3960"/><path d="M37.975,8.1A4.743,4.743,0,0,1,41.3,16.182a4.658,4.658,0,0,1-3.316,1.384h-.008a4.735,4.735,0,0,1-.014-9.47Zm.005,8.47h.007A3.665,3.665,0,0,0,40.6,15.477,3.743,3.743,0,0,0,37.975,9.1h-.006a3.735,3.735,0,0,0,.012,7.47Z" fill="#2d3960"/><path d="M16.174,4.632A4.733,4.733,0,0,1,16.18,14.1h-.016a4.733,4.733,0,0,1-.006-9.466ZM16.164,13.1h.013a3.733,3.733,0,0,0,0-7.466h-.013a3.733,3.733,0,0,0,0,7.466Z" fill="#2d3960"/><path d="M97.751,36.779l-.71-.7,5.867-5.907V17.276h1v13.1a.5.5,0,0,1-.145.352Z" fill="#2d3960"/><path d="M77.458,31.91l-.709-.7L81.1,26.828V20.743h1v6.291a.5.5,0,0,1-.145.352Z" fill="#2d3960"/><path d="M22.608,38.7l-6.94-6.988V17.276h1V31.3l6.65,6.7Z" fill="#2d3960"/><path d="M45.823,33.884l-8.343-8.4V20.743h1v4.329l8.053,8.107Z" fill="#2d3960"/><path d="M73.275,77.552h-1V63.8H47.3V77.488h-1V63.3a.5.5,0,0,1,.5-.5H72.775a.5.5,0,0,1,.5.5Z" fill="#2d3960"/></g></g></svg>