<svg xmlns="http://www.w3.org/2000/svg" xmlns:xlink="http://www.w3.org/1999/xlink" width="154.761" height="109.761" viewBox="0 0 154.761 109.761"><defs><clipPath id="a"><rect width="154.761" height="109.761" fill="none" stroke="#707070" stroke-width="1"/></clipPath><clipPath id="c"><rect width="17.862" height="17.907" transform="translate(29.017 75.435)" fill="none" stroke="#707070" stroke-width="1"/></clipPath><clipPath id="d"><rect width="17.862" height="17.907" transform="translate(68.345 90.189)" fill="none" stroke="#707070" stroke-width="1"/></clipPath><clipPath id="e"><rect width="17.861" height="17.907" transform="translate(107.673 60.68)" fill="none" stroke="#707070" stroke-width="1"/></clipPath><clipPath id="f"><rect width="17.862" height="17.907" transform="translate(68.345 60.68)" fill="none" stroke="#707070" stroke-width="1"/></clipPath><clipPath id="g"><rect width="17.862" height="17.912" transform="translate(29.017 45.925)" fill="none" stroke="#707070" stroke-width="1"/></clipPath><clipPath id="h"><rect width="17.862" height="17.907" transform="translate(68.345 31.174)" fill="none" stroke="#707070" stroke-width="1"/></clipPath><clipPath id="i"><rect width="17.861" height="17.907" transform="translate(107.673 31.174)" fill="none" stroke="#707070" stroke-width="1"/></clipPath><clipPath id="j"><rect width="17.862" height="17.907" transform="translate(68.345 1.665)" fill="none" stroke="#707070" stroke-width="1"/></clipPath><clipPath id="k"><rect width="17.862" height="17.907" transform="translate(29.017 16.42)" fill="none" stroke="#707070" stroke-width="1"/></clipPath></defs><g clip-path="url(#a)"><g clip-path="url(#a)"><g opacity="0.5"><g clip-path="url(#c)"><path d="M46.4,81.514a8.8,8.8,0,0,1,.475,2.877,8.957,8.957,0,1,1-.475-2.877" fill="#61b0bc"/><path d="M37.948,93.842a9.454,9.454,0,1,1,8.93-12.488,9.289,9.289,0,0,1,.5,3.037,9.434,9.434,0,0,1-9.431,9.451Zm0-17.907a8.454,8.454,0,0,0,0,16.907,8.454,8.454,0,0,0,0-16.907Z" fill="#707070"/></g></g><g opacity="0.5"><g clip-path="url(#d)"><path d="M84.425,93.778a8.921,8.921,0,1,1-7.149-3.589,8.914,8.914,0,0,1,7.149,3.589" fill="#61b0bc"/><path d="M77.276,108.6a9.459,9.459,0,0,1-5.434-17.182,9.422,9.422,0,0,1,9.723-.692,9.506,9.506,0,0,1,3.261,2.757,9.457,9.457,0,0,1-7.55,15.117Zm0-17.907a8.428,8.428,0,0,0-7.9,5.488,8.436,8.436,0,1,0,16.327,2.968,8.384,8.384,0,0,0-1.682-5.067,8.5,8.5,0,0,0-2.916-2.466A8.319,8.319,0,0,0,77.276,90.689Z" fill="#707070"/></g></g><g opacity="0.5"><g clip-path="url(#e)"><path d="M109.454,64.268a8.967,8.967,0,1,1-1.782,5.367v0a8.911,8.911,0,0,1,1.782-5.363" fill="#61b0bc"/><path d="M116.6,79.086a9.454,9.454,0,1,1,9.431-9.451A9.442,9.442,0,0,1,116.6,79.086Zm0-17.907a8.319,8.319,0,0,0-3.833.923,8.5,8.5,0,0,0-2.916,2.465,8.467,8.467,0,0,0,0,10.131,8.5,8.5,0,0,0,2.916,2.466,8.322,8.322,0,0,0,3.833.922,8.454,8.454,0,0,0,0-16.907Z" fill="#707070"/></g></g><g opacity="0.5"><g clip-path="url(#f)"><path d="M86.207,69.631v.005a8.969,8.969,0,1,1,0-.005" fill="#61b0bc"/><path d="M77.276,79.087a9.454,9.454,0,1,1,4.289-17.875,9.5,9.5,0,0,1,3.26,2.757,9.457,9.457,0,0,1-7.55,15.118Zm0-17.907a8.454,8.454,0,0,0,0,16.907A8.459,8.459,0,0,0,81.109,62.1,8.322,8.322,0,0,0,77.276,61.18Z" fill="#707070"/></g></g><g opacity="0.5"><g clip-path="url(#g)"><path d="M46.313,51.747a8.926,8.926,0,1,1-8.364-5.822,8.917,8.917,0,0,1,8.364,5.822" fill="#61b0bc"/><path d="M37.949,64.337a9.456,9.456,0,0,1,0-18.912,9.456,9.456,0,0,1,0,18.912Zm0-17.912a8.456,8.456,0,0,0,0,16.912,8.456,8.456,0,0,0,0-16.912Z" fill="#707070"/></g></g><g opacity="0.5"><g clip-path="url(#h)"><path d="M84.425,45.493a8.957,8.957,0,1,1,1.782-5.367,8.908,8.908,0,0,1-1.782,5.367" fill="#61b0bc"/><path d="M77.276,49.582a9.454,9.454,0,0,1,0-18.907,9.454,9.454,0,0,1,0,18.907Zm0-17.907a8.454,8.454,0,1,0,3.833,15.984,8.5,8.5,0,0,0,2.916-2.465,8.457,8.457,0,0,0-6.748-13.519Z" fill="#707070"/></g></g><g opacity="0.5"><g clip-path="url(#i)"><path d="M109.454,45.493a8.926,8.926,0,1,1,7.149,3.589,8.934,8.934,0,0,1-7.149-3.589" fill="#61b0bc"/><path d="M116.6,49.582a9.454,9.454,0,1,1,9.431-9.456A9.439,9.439,0,0,1,116.6,49.582Zm0-17.907a8.322,8.322,0,0,0-3.833.922,8.5,8.5,0,0,0-2.916,2.465,8.467,8.467,0,0,0,0,10.132,8.5,8.5,0,0,0,2.916,2.466,8.319,8.319,0,0,0,3.833.923,8.454,8.454,0,0,0,0-16.907Z" fill="#707070"/></g></g><g opacity="0.5"><g clip-path="url(#j)"><path d="M86.207,10.616a8.931,8.931,0,1,1-8.931-8.951,8.934,8.934,0,0,1,8.931,8.951" fill="#61b0bc"/><path d="M77.276,20.072a9.448,9.448,0,0,1-9.431-9.456,9.43,9.43,0,1,1,9.431,9.456Zm0-17.907a8.457,8.457,0,0,0-4.852,15.366,8.416,8.416,0,0,0,8.685.619,8.5,8.5,0,0,0,2.915-2.465A8.457,8.457,0,0,0,77.276,2.165Z" fill="#707070"/></g></g><g opacity="0.5"><g clip-path="url(#k)"><path d="M46.313,22.237a8.927,8.927,0,1,1-8.364-5.817,8.917,8.917,0,0,1,8.364,5.817" fill="#61b0bc"/><path d="M37.949,34.827a9.454,9.454,0,0,1,0-18.907,9.454,9.454,0,0,1,0,18.907Zm0-17.907a8.454,8.454,0,0,0,0,16.907,8.454,8.454,0,0,0,0-16.907Z" fill="#707070"/></g></g><path d="M20.365.5H0v-1H20.365Z" transform="translate(0 54.881)" fill="#2d3960"/></g><path d="M14.579,61.631l-.706-.708,6.054-6.042-6.054-6.043.706-.708,6.764,6.751Z" fill="#2d3960"/><g clip-path="url(#a)"><path d="M20.37.5H0v-1H20.37Z" transform="translate(131.77 40.126)" fill="#2d3960"/><path d="M146.349,46.876l-.706-.708L151.7,40.13l-6.055-6.047.707-.708,6.763,6.755Z" fill="#2d3960"/><path d="M20.37.5H0v-1H20.37Z" transform="translate(131.77 69.635)" fill="#2d3960"/><path d="M146.349,76.386l-.706-.708,6.054-6.042-6.054-6.043.706-.708,6.764,6.751Z" fill="#2d3960"/><path d="M20.365.5H0v-1H20.365Z" transform="translate(0 25.371)" fill="#2d3960"/></g><path d="M14.578,32.121l-.706-.708,6.054-6.038-6.054-6.042.706-.708,6.764,6.75Z" fill="#2d3960"/><g clip-path="url(#a)"><path d="M20.365.5H0v-1H20.365Z" transform="translate(0 84.39)" fill="#2d3960"/></g><path d="M14.578,91.136l-.706-.708,6.054-6.038-6.054-6.042.706-.708,6.764,6.75Z" fill="#2d3960"/><g clip-path="url(#a)"><path d="M77.275,20.072a9.436,9.436,0,0,1-8.832-6.138,9.419,9.419,0,1,1,13.122,5.105A9.311,9.311,0,0,1,77.275,20.072Zm0-17.907a8.457,8.457,0,0,0-4.852,15.366,8.416,8.416,0,0,0,8.686.618,8.507,8.507,0,0,0,2.916-2.466A8.458,8.458,0,0,0,77.275,2.165Z" fill="#2d3960"/><path d="M77.276,30.675a9.454,9.454,0,0,1,0,18.907,9.454,9.454,0,0,1,0-18.907Zm0,17.907a8.319,8.319,0,0,0,3.833-.923,8.5,8.5,0,0,0,2.915-2.465,8.413,8.413,0,1,0-6.748,3.388Z" fill="#2d3960"/><path d="M77.276,60.18a9.461,9.461,0,1,1-8.8,12.836,9.444,9.444,0,0,1,8.8-12.836Zm0,17.907A8.459,8.459,0,0,0,81.109,62.1a8.419,8.419,0,0,0-8.689.621,8.471,8.471,0,0,0-3.575,6.913,8.437,8.437,0,0,0,8.431,8.451Z" fill="#2d3960"/><path d="M77.276,89.689a9.428,9.428,0,1,1-5.434,1.725A9.439,9.439,0,0,1,77.276,89.689Zm0,17.907a8.459,8.459,0,0,0,3.833-15.984,8.422,8.422,0,0,0-8.689.618A8.459,8.459,0,0,0,77.276,107.6Z" fill="#2d3960"/><path d="M37.949,15.92a9.454,9.454,0,0,1,0,18.907,9.454,9.454,0,0,1,0-18.907Zm0,17.907a8.454,8.454,0,0,0,0-16.907,8.454,8.454,0,0,0,0,16.907Z" fill="#2d3960"/><path d="M37.949,45.425a9.456,9.456,0,0,1,0,18.912,9.456,9.456,0,0,1,0-18.912Zm0,17.912a8.456,8.456,0,0,0,0-16.912,8.456,8.456,0,0,0,0,16.912Z" fill="#2d3960"/><path d="M37.948,74.935a9.421,9.421,0,0,1,8.93,6.419,9.289,9.289,0,0,1,.5,3.037,9.431,9.431,0,1,1-9.431-9.456Zm0,17.907a8.454,8.454,0,0,0,0-16.907,8.454,8.454,0,0,0,0,16.907Z" fill="#2d3960"/><path d="M116.6,30.675a9.406,9.406,0,1,1-4.289,1.032A9.452,9.452,0,0,1,116.6,30.675Zm0,17.907a8.454,8.454,0,0,0,0-16.907,8.322,8.322,0,0,0-3.833.922,8.5,8.5,0,0,0-2.915,2.465,8.467,8.467,0,0,0,0,10.131,8.5,8.5,0,0,0,2.915,2.466A8.319,8.319,0,0,0,116.6,48.582Z" fill="#2d3960"/><path d="M116.6,60.18a9.406,9.406,0,1,1-4.289,1.032A9.454,9.454,0,0,1,116.6,60.18Zm0,17.907a8.454,8.454,0,0,0,0-16.907,8.322,8.322,0,0,0-3.833.922,8.5,8.5,0,0,0-2.915,2.465,8.467,8.467,0,0,0,0,10.131,8.5,8.5,0,0,0,2.916,2.466A8.319,8.319,0,0,0,116.6,78.087Z" fill="#2d3960"/><path d="M24.729,19.18-.3.4.3-.4,25.329,18.38Z" transform="translate(84.425 15.983)" fill="#2d3960"/><path d="M.3,19.18l-.6-.8L24.729-.4l.6.8Z" transform="translate(84.425 74.998)" fill="#2d3960"/><path d="M21.466.5H0v-1H21.466Z" transform="translate(86.207 69.631)" fill="#2d3960"/><path d="M21.466.5H0v-1H21.466Z" transform="translate(86.207 40.126)" fill="#2d3960"/><path d="M.176,8.951l-.351-.936,22.6-8.483.351.936Z" transform="translate(46.312 43.264)" fill="#2d3960"/><path d="M22.423,8.95-.176.468.176-.468l22.6,8.482Z" transform="translate(46.312 58.015)" fill="#2d3960"/><path d="M46.4,22.737h-.091l0-.505-.174-.463,22.6-8.478.351.936Z" fill="#2d3960"/><path d="M68.736,96.47l-22.6-8.478.174-.463,0-.505H46.4l.089.032,22.6,8.478Z" fill="#2d3960"/><path d="M46.5,82.014H46.4l0-.507-.177-.46,22.535-8.676.359.933Z" fill="#2d3960"/><path d="M22.423,8.951-.176.468.176-.468l22.6,8.483Z" transform="translate(46.312 28.504)" fill="#2d3960"/><path d="M109.155,64.668,96.642,55.28,84.1,45.872l-.03-.03.389-.388.27-.36L97.242,54.48l12.564,9.426.044.055-.41.327Z" fill="#2d3960"/><path d="M84.725,64.668l-.285-.38-.41-.327.044-.055,25.08-18.813.27.36.389.389-.03.03-.028.021Z" fill="#2d3960"/></g></g></svg>