<svg xmlns="http://www.w3.org/2000/svg" xmlns:xlink="http://www.w3.org/1999/xlink" width="128.179" height="113.859" viewBox="0 0 128.179 113.859"><defs><clipPath id="a"><rect width="128.179" height="113.859" fill="none" stroke="#707070" stroke-width="1"/></clipPath><clipPath id="b"><rect width="128.179" height="113.859" transform="translate(0 0)" fill="none" stroke="#707070" stroke-width="1"/></clipPath><clipPath id="c"><rect width="124.849" height="13.514" transform="translate(1.665 82.284)" fill="none" stroke="#707070" stroke-width="1"/></clipPath></defs><g clip-path="url(#a)"><g clip-path="url(#b)"><g opacity="0.5"><g clip-path="url(#c)"><path d="M126.514,82.284V95.8H1.664V82.284h124.85Z" fill="#61b0bc"/><path d="M1.164,81.784h125.85V96.3H1.164Zm124.85,1H2.164V95.3h123.85Z" fill="#707070"/></g></g><path d="M127.014,96.3H1.164V1.165h125.85Zm-124.85-1h123.85V2.165H2.164Z" fill="#2d3960"/><path d="M87.94,112.694H38.482v-1H87.94Z" fill="#2d3960"/><path d="M.5,11.1h-1V0h1Z" transform="translate(76.149 101.098)" fill="#2d3960"/><path d="M.5,16.1h-1V0h1Z" transform="translate(52.182 96.096)" fill="#2d3960"/></g><path d="M34.31,51.338,24.844,35.8H12.76v-1H25.406l8.668,14.228L45.712,16.51l7.781,19.944H65.516v1H52.809l-7.057-18.09Z" fill="#2d3960"/><g clip-path="url(#b)"><path d="M124.161.5H0v-1H124.161Z" transform="translate(2.353 82.284)" fill="#2d3960"/></g><path d="M52.756.5H0v-1H52.756Z" transform="translate(59.078 67.455)" fill="#2d3960"/><path d="M52.756.5H0v-1H52.756Z" transform="translate(59.078 55.524)" fill="#2d3960"/><path d="M29.675.5H0v-1H29.675Z" transform="translate(82.158 43.589)" fill="#2d3960"/><path d="M29.675.5H0v-1H29.675Z" transform="translate(82.158 31.658)" fill="#2d3960"/><path d="M29.675.5H0v-1H29.675Z" transform="translate(82.158 19.723)" fill="#2d3960"/></g></svg>