<svg xmlns="http://www.w3.org/2000/svg" version="1.1" xmlns:xlink="http://www.w3.org/1999/xlink" width="71.347" height="80.21"><svg xmlns="http://www.w3.org/2000/svg" width="71.347" height="80.21" viewBox="0 0 71.347 80.21"><g transform="translate(0)"><path d="M123.847,43.751l-2.8-20.524-3.977-6.408,8.724-3.4-.776-9.7L116.559,0l-5.964,9.774H84.958L78.993,0l-8.46,3.71-.777,9.7,8.721,3.4L74.5,23.226,71.7,43.751,62.1,51.86v19.3L81.057,80.21h33.434l18.956-9.054V51.86ZM118.065,4.786l3.367,1.478.372,4.652-6.76,2.636-1.174-1.893Zm-44.318,6.13.372-4.652,3.368-1.478,4.191,6.869L80.5,13.55Zm55.92,57.857-16.034,7.657H81.914L65.879,68.773V53.614L75.248,45.7l2.887-21.167,6.813-10.981H110.6l6.814,10.981L120.3,45.7l9.369,7.913Z" transform="translate(-62.1)" fill="#61b0bc"></path><rect width="5.356" height="5.356" transform="translate(42.698 29.643)" fill="#61b0bc"></rect><rect width="5.356" height="5.356" transform="translate(23.293 29.643)" fill="#61b0bc"></rect></g></svg><style>@media (prefers-color-scheme: light) { :root { filter: none; } }
</style></svg>